<svg xmlns="http://www.w3.org/2000/svg" width="297.77" height="66.82" viewBox="0 0 297.77 66.82">
	<style type="text/css">
		.st2{fill:#876eae;fill-rule:evenodd;}
		.st1{fill:#ffffff;}
		.st4{fill:#6d6a67;fill-rule:evenodd;}
		.st3{fill:#664233;}
		.st5{fill:#6d6a67;}
		.st0{fill:#419300;}
	</style>
	<path class="st0" d="M64.99,15.84L48.53,61.67L297.78,61.67L297.78,15.84Z"/>
	<path class="st1" d="M90.05,46.56L90.05,46.74C90.05,47.55 89.49,47.92 88.47,47.92C87.07,47.92 86.46,46.62 85.57,44.74C84.45,42.27 82.65,38.36 79.49,38.36C78.53,38.36 77.72,38.56 77.72,39.17L77.72,45.43C77.72,45.96 77.99,46.85 78.8,46.85L79.68,46.85L79.68,47.72L73.65,47.72L73.65,46.85L74.43,46.85C75.07,46.85 75.79,46.24 75.79,45.43L75.79,30.27C75.79,29.55 75.31,29.14 74.59,29.14L73.65,29.14L73.65,28.1L79.49,28.1L79.49,29.14L78.77,29.14C77.96,29.14 77.72,29.72 77.72,30.27L77.72,36.85L79.17,36.85C81.15,36.85 82.38,35.58 83.03,34.59C83.89,33.32 85.44,30.45 85.49,30.3C85.66,29.93 85.71,29.72 85.71,29.49C85.71,29.17 85.55,28.97 85.04,28.94L84.64,28.94L84.64,28.1L89.75,28.1L89.75,28.94L89.35,28.94C88.41,28.94 87.77,29.9 87.29,30.74C86.51,32.04 83.83,37.32 82.09,37.41C83.3,37.67 85.3,39.32 86.38,41.84C87.8,45 89,46.56 90.05,46.56"/>
	<path class="st1" d="M88.47,48.3C86.83,48.3 86.13,46.8 85.23,44.9C84.18,42.59 82.41,38.74 79.49,38.74C78.65,38.74 78.1,38.91 78.1,39.17L78.1,45.43C78.1,45.7 78.23,46.48 78.8,46.48L79.68,46.48C79.89,46.48 80.05,46.65 80.05,46.85L80.05,47.72C80.05,47.93 79.89,48.1 79.68,48.1L73.65,48.1C73.44,48.1 73.27,47.93 73.27,47.72L73.27,46.85C73.27,46.65 73.44,46.48 73.65,46.48L74.43,46.48C74.88,46.48 75.42,46.02 75.42,45.43L75.42,30.27C75.42,29.65 74.97,29.52 74.59,29.52L73.65,29.52C73.44,29.52 73.27,29.35 73.27,29.14L73.27,28.1C73.27,27.89 73.44,27.72 73.65,27.72L79.49,27.72C79.7,27.72 79.87,27.89 79.87,28.1L79.87,29.14C79.87,29.35 79.7,29.52 79.49,29.52L78.77,29.52C78.58,29.52 78.1,29.52 78.1,30.27L78.1,36.48L79.17,36.48C80.97,36.48 82.09,35.34 82.71,34.38C83.56,33.13 85.06,30.34 85.14,30.16C85.3,29.79 85.33,29.65 85.33,29.49C85.33,29.4 85.33,29.33 85.02,29.32L84.64,29.32C84.43,29.32 84.26,29.15 84.26,28.94L84.26,28.1C84.26,27.89 84.43,27.72 84.64,27.72L89.75,27.72C89.96,27.72 90.13,27.89 90.13,28.1L90.13,28.94C90.13,29.15 89.96,29.32 89.75,29.32L89.35,29.32C88.63,29.32 88.07,30.13 87.62,30.92C87.51,31.11 87.36,31.37 87.19,31.68C85.88,34.01 84.42,36.47 83.08,37.4C84.36,38.1 85.87,39.67 86.72,41.69C88.39,45.41 89.45,46.19 90.05,46.19C90.26,46.19 90.42,46.36 90.42,46.56L90.42,46.74C90.42,47.32 90.17,48.3 88.47,48.3M79.49,37.98C82.9,37.98 84.79,42.11 85.92,44.58C86.83,46.53 87.36,47.55 88.47,47.55C89.46,47.55 89.63,47.16 89.67,46.89C88.56,46.6 87.39,45.02 86.03,41.99C84.96,39.47 83,37.99 82.01,37.77C81.83,37.73 81.7,37.56 81.72,37.37C81.73,37.18 81.88,37.04 82.07,37.03C83.36,36.96 85.66,32.86 86.53,31.31C86.71,31 86.85,30.73 86.97,30.54C87.52,29.57 88.25,28.56 89.35,28.56L89.38,28.56L89.38,28.48L85.01,28.48L85.04,28.56C85.95,28.61 86.08,29.17 86.08,29.49C86.08,29.78 86.02,30.03 85.84,30.45C85.77,30.65 84.16,33.58 83.34,34.8C82.75,35.71 81.42,37.23 79.17,37.23L77.72,37.23C77.52,37.23 77.35,37.06 77.35,36.85L77.35,30.27C77.35,29.34 77.89,28.77 78.77,28.77L79.11,28.77L79.11,28.48L74.03,28.48L74.03,28.77L74.59,28.77C75.55,28.77 76.17,29.36 76.17,30.27L76.17,45.43C76.17,46.49 75.25,47.23 74.43,47.23L74.03,47.23L74.03,47.35L79.3,47.35L79.3,47.23L78.8,47.23C77.85,47.23 77.35,46.3 77.35,45.43L77.35,39.17C77.35,38.63 77.72,37.98 79.49,37.98"/>
	<path class="st1" d="M104.88,41.11C104.88,44.56 102.6,48.27 99.2,48.27C97.05,48.27 96.33,47.52 96.33,46.82C96.33,46.16 96.84,45.81 96.84,45.81C96.84,45.81 97.45,47.03 99.3,47.03C101.45,47.03 103.08,44.56 103.08,41.2C103.08,37.87 101.98,35.2 99.39,35.2C96.89,35.2 94.78,37.95 94.78,40.77L94.78,51.32C94.78,52.19 95.26,53.09 96.41,53.09L97.22,53.09L97.22,53.87L91.24,53.87L91.24,53.09L91.86,53.09C92.77,53.09 93.01,52.1 93.01,51.64L93.01,36.51C93.01,35.64 92.74,34.8 91.61,34.8L90.87,34.8L90.87,34.07L92.98,34.07C94,34.07 94.78,34.8 94.78,35.87L94.78,36.77C95.66,35.2 97.35,33.9 99.39,33.9C103.94,33.9 104.88,37.87 104.88,41.11"/>
	<path class="st1" d="M97.22,54.24L91.24,54.24C91.03,54.24 90.86,54.07 90.86,53.87L90.86,53.09C90.86,52.88 91.03,52.71 91.24,52.71L91.86,52.71C92.61,52.71 92.63,51.65 92.63,51.64L92.63,36.51C92.63,35.33 92.12,35.17 91.61,35.17L90.87,35.17C90.66,35.17 90.49,35 90.49,34.8L90.49,34.07C90.49,33.86 90.66,33.69 90.87,33.69L92.98,33.69C94.15,33.69 95.02,34.48 95.14,35.6C96.09,34.47 97.55,33.52 99.38,33.52C103.17,33.52 105.26,36.22 105.26,41.11C105.26,44.75 102.82,48.65 99.2,48.65C96.19,48.65 95.95,47.25 95.95,46.82C95.95,45.97 96.6,45.52 96.63,45.5C96.72,45.44 96.83,45.42 96.93,45.44C97.04,45.47 97.13,45.54 97.18,45.64C97.2,45.68 97.73,46.65 99.31,46.65C101.24,46.65 102.71,44.31 102.71,41.2C102.71,39.51 102.38,35.58 99.38,35.58C97.17,35.58 95.15,38.05 95.15,40.77L95.15,51.32C95.15,51.55 95.21,52.71 96.41,52.71L97.22,52.71C97.42,52.71 97.59,52.88 97.59,53.09L97.59,53.87C97.59,54.07 97.42,54.24 97.22,54.24M91.62,53.49L96.84,53.46L96.41,53.46C95.02,53.46 94.4,52.39 94.4,51.32L94.4,40.77C94.4,37.66 96.78,34.83 99.38,34.83C101.94,34.83 103.46,37.21 103.46,41.2C103.46,44.74 101.67,47.4 99.31,47.4C97.97,47.4 97.2,46.83 96.81,46.41C96.75,46.52 96.71,46.65 96.71,46.82C96.71,47.32 97.36,47.9 99.2,47.9C102.37,47.9 104.5,44.39 104.5,41.11C104.5,37.99 103.61,34.27 99.38,34.27C97.35,34.27 95.84,35.66 95.11,36.95C95.02,37.1 94.85,37.18 94.68,37.13C94.52,37.09 94.4,36.94 94.4,36.77L94.4,35.87C94.4,35.03 93.82,34.45 92.98,34.45L91.98,34.45C92.62,34.56 93.39,35 93.39,36.51L93.39,51.64C93.39,52.37 92.98,53.46 91.86,53.46Z"/>
	<path class="st1" d="M106.23,34.8L105.43,34.8L105.43,34.04L111.24,34.04L111.24,34.8L110.73,34.8C109.37,34.8 109.29,35.84 109.29,36.42L109.29,42.42C109.29,45.55 110.95,46.74 112.74,46.74C114.96,46.74 116.2,44.77 116.2,42.65C116.2,40.62 115.47,38.97 113.44,38.97C112.77,38.97 111.96,39.26 111.13,40.19C110.87,39.87 110.73,39.66 110.73,39.26C110.73,38.51 111.64,37.81 113.44,37.81C115.93,37.81 117.97,39.35 117.97,42.65C117.97,45.23 116.33,47.95 112.74,47.95C109.2,47.95 107.52,45.72 107.52,42.42C107.52,42.42 107.54,38.07 107.54,36.36C107.54,35.84 107.33,34.8 106.23,34.8M123.59,47L123.59,47.75L117.65,47.75L117.65,47L118.29,47C118.9,47 119.73,46.56 119.73,45.4L119.73,36.33C119.73,35.37 119.31,34.82 118.37,34.82L117.73,34.82L117.73,34.07L119.57,34.07C121.1,34.07 121.5,34.91 121.5,36.33L121.5,45.4C121.5,46.48 122.33,47 122.95,47Z"/>
	<path class="st1" d="M112.74,48.33C109.18,48.33 107.14,46.17 107.14,42.42C107.14,42.42 107.17,38.07 107.17,36.36C107.17,36.08 107.1,35.17 106.23,35.17L105.43,35.17C105.22,35.17 105.05,35 105.05,34.79L105.05,34.04C105.05,33.83 105.22,33.66 105.43,33.66L111.24,33.66C111.45,33.66 111.62,33.83 111.62,34.04L111.62,34.79C111.62,35 111.45,35.17 111.24,35.17L110.73,35.17C109.84,35.17 109.66,35.67 109.66,36.42L109.66,42.42C109.66,44.92 110.78,46.36 112.74,46.36C114.86,46.36 115.82,44.44 115.82,42.65C115.82,41.14 115.41,39.35 113.44,39.35C112.74,39.35 112.06,39.71 111.41,40.44C111.34,40.52 111.25,40.57 111.13,40.56C111.02,40.56 110.92,40.51 110.84,40.43C110.56,40.08 110.35,39.8 110.35,39.26C110.35,38.35 111.31,37.43 113.44,37.43C115.81,37.43 118.34,38.8 118.34,42.65C118.34,45.38 116.59,48.33 112.74,48.33M105.8,34.42L106.23,34.42C107.4,34.42 107.92,35.39 107.92,36.36C107.92,38.07 107.89,42.42 107.89,42.42C107.89,45.74 109.62,47.58 112.74,47.58C116.09,47.58 117.59,45.1 117.59,42.65C117.59,39.85 116.04,38.19 113.44,38.19C111.91,38.19 111.11,38.73 111.11,39.26C111.11,39.4 111.13,39.5 111.18,39.6C111.88,38.93 112.64,38.59 113.44,38.59C115.43,38.59 116.58,40.07 116.58,42.65C116.58,44.87 115.26,47.11 112.74,47.11C110.89,47.11 108.91,45.88 108.91,42.42L108.91,36.42C108.91,34.77 109.9,34.42 110.73,34.42L110.86,34.42ZM123.59,48.13L117.65,48.13C117.44,48.13 117.27,47.96 117.27,47.75L117.27,47C117.27,46.79 117.44,46.62 117.65,46.62L118.29,46.62C118.68,46.62 119.36,46.36 119.36,45.4L119.36,36.33C119.36,35.34 118.86,35.2 118.37,35.2L117.73,35.2C117.52,35.2 117.35,35.03 117.35,34.82L117.35,34.07C117.35,33.86 117.52,33.69 117.73,33.69L119.57,33.69C121.62,33.69 121.88,35.1 121.88,36.33L121.88,45.4C121.88,46.24 122.51,46.62 122.95,46.62L123.59,46.62C123.8,46.62 123.97,46.79 123.97,47L123.97,47.75C123.97,47.96 123.8,48.13 123.59,48.13M118.34,47.37L122.91,47.37C122.15,47.35 121.13,46.74 121.13,45.4L121.13,36.33C121.13,34.92 120.73,34.45 119.57,34.45L118.43,34.45C119.5,34.47 120.11,35.15 120.11,36.33L120.11,45.4C120.11,46.67 119.23,47.35 118.34,47.37"/>
	<path class="st1" d="M143.46,47.72L138.37,47.72L138.37,46.97C139.71,46.97 139.79,46.27 139.79,45.55C139.79,44.74 138.88,37.49 138.74,36.33C138.31,37.43 135.63,44.65 135.02,46.48C134.56,47.58 134.16,48.04 133.28,48.04C132.98,48.04 132.66,47.92 132.61,47.55C132.85,47.43 132.88,47.11 132.79,46.85C131.83,44.04 128.91,36.97 128.72,36.51C128.53,37.61 127.76,44.45 127.68,45.66C127.68,46.42 127.92,46.97 129.23,46.97L129.23,47.72L124.17,47.72L124.17,46.97C125.21,46.97 125.94,46.85 126.15,45.64C126.79,41.66 127.38,36.85 127.43,35.9C127.43,35 126.9,34.8 125.99,34.8L124.97,34.8L124.97,34.04L126.1,34.04C126.82,33.98 127.22,33.84 128.11,33.84C129.82,33.84 129.93,34.74 131.16,38.01L133.92,45.43C135.31,42.13 136.33,38.74 137.59,35.35C137.8,34.74 138.37,33.87 139.76,33.87C140.56,33.87 141.18,34.04 141.96,34.04L142.71,34.04L142.65,34.8L141.9,34.8C141.18,34.8 140.46,34.91 140.46,36.22C140.51,37.2 140.97,41.29 141.5,45.29C141.66,46.45 142.57,46.97 143.46,46.97Z"/>
	<path class="st1" d="M133.28,48.42C132.71,48.42 132.3,48.1 132.23,47.6C132.21,47.44 132.29,47.28 132.44,47.21C132.45,47.19 132.48,47.09 132.43,46.96C131.91,45.43 130.72,42.39 128.91,37.95C128.61,40.32 128.12,44.72 128.05,45.69C128.05,46.22 128.14,46.59 129.23,46.59C129.44,46.59 129.61,46.76 129.61,46.97L129.61,47.72C129.61,47.93 129.44,48.1 129.23,48.1L124.17,48.1C123.96,48.1 123.79,47.93 123.79,47.72L123.79,46.97C123.79,46.76 123.96,46.59 124.17,46.59C125.24,46.59 125.62,46.44 125.78,45.57C126.43,41.57 127,36.82 127.06,35.87C127.06,35.4 126.95,35.17 125.99,35.17L124.97,35.17C124.76,35.17 124.59,35 124.59,34.8L124.59,34.04C124.59,33.83 124.76,33.66 124.97,33.66L126.1,33.66C126.33,33.64 126.56,33.61 126.78,33.58C127.15,33.52 127.53,33.46 128.11,33.46C129.88,33.46 130.22,34.38 131.13,36.84L133.94,44.4C134.65,42.62 135.28,40.8 135.89,39.03C136.33,37.76 136.76,36.49 137.24,35.21C137.42,34.7 138.03,33.49 139.76,33.49C140.19,33.49 140.56,33.54 140.92,33.58C141.27,33.62 141.59,33.66 141.96,33.66L142.71,33.66C142.81,33.66 142.91,33.71 142.98,33.78C143.05,33.86 143.09,33.96 143.08,34.07L143.03,34.82C143.02,35.02 142.85,35.17 142.65,35.17L141.9,35.17C141.24,35.17 140.83,35.24 140.83,36.22C140.89,37.19 141.36,41.35 141.88,45.24C142.01,46.24 142.81,46.59 143.46,46.59C143.66,46.59 143.83,46.76 143.83,46.97L143.83,47.72C143.83,47.93 143.66,48.1 143.46,48.1L138.37,48.1C138.16,48.1 137.99,47.93 137.99,47.72L137.99,46.97C137.99,46.76 138.16,46.59 138.37,46.59C139.36,46.59 139.41,46.23 139.41,45.55C139.41,44.94 138.84,40.29 138.55,37.9C137.61,40.42 135.85,45.18 135.38,46.6C134.89,47.76 134.4,48.42 133.28,48.42M133.07,47.62C133.11,47.65 133.18,47.66 133.28,47.66C133.87,47.66 134.19,47.48 134.67,46.33C135.27,44.56 137.93,37.38 138.39,36.19C138.45,36.03 138.62,35.94 138.79,35.96C138.96,35.98 139.1,36.11 139.12,36.29L139.28,37.64C139.71,41.14 140.16,44.93 140.16,45.55C140.16,46.09 140.16,47.17 138.74,47.33L138.74,47.35L143.08,47.32C142.18,47.18 141.3,46.56 141.13,45.34C140.6,41.37 140.14,37.26 140.08,36.23C140.08,34.42 141.36,34.42 141.9,34.42L142.3,34.42L141.96,34.42C141.55,34.42 141.18,34.37 140.83,34.33C140.48,34.29 140.14,34.24 139.76,34.24C138.62,34.24 138.14,34.91 137.95,35.47C137.47,36.74 137.04,38.01 136.6,39.27C135.89,41.35 135.14,43.5 134.27,45.58C134.21,45.72 134.07,45.81 133.92,45.81L133.91,45.81C133.76,45.81 133.62,45.71 133.57,45.56L130.42,37.1C129.51,34.63 129.32,34.21 128.11,34.21C127.59,34.21 127.25,34.27 126.89,34.32C126.65,34.36 126.42,34.39 126.13,34.42L125.35,34.42L125.99,34.42C126.53,34.42 127.81,34.42 127.81,35.9C127.76,36.88 127.17,41.67 126.52,45.7C126.29,47.03 125.45,47.29 124.54,47.34L124.54,47.35L128.85,47.33C127.8,47.23 127.3,46.7 127.3,45.66C127.38,44.39 128.17,37.51 128.35,36.44C128.38,36.27 128.51,36.15 128.68,36.13C128.85,36.12 129.01,36.21 129.07,36.36L129.23,36.75C131.26,41.71 132.58,45.06 133.15,46.73C133.26,47.07 133.22,47.39 133.07,47.62"/>
	<path class="st1" d="M146.61,40.82C146.61,44.13 148.51,46.77 151.05,46.77C153.49,46.77 154.46,44.97 154.89,44.19C155.48,44.53 155.74,44.88 155.74,45.38C155.74,46.48 154.51,48.07 150.84,48.07C146.85,48.07 144.68,44.36 144.68,40.82C144.68,37.29 146.69,33.35 151.16,33.35C154.24,33.35 155.85,33.98 155.85,36.36C155.85,37.75 155.07,38.22 154.3,38.22C154.3,35.66 153.84,34.68 151.22,34.68C148.54,34.68 146.61,37.46 146.61,40.82"/>
	<path class="st1" d="M150.84,48.45C146.59,48.45 144.3,44.52 144.3,40.82C144.3,37.04 146.45,32.97 151.16,32.97C153.79,32.97 156.23,33.38 156.23,36.36C156.23,38.01 155.23,38.59 154.3,38.59C154.09,38.59 153.92,38.42 153.92,38.22C153.92,35.81 153.55,35.06 151.22,35.06C148.84,35.06 146.98,37.59 146.98,40.82C146.98,43.94 148.77,46.39 151.06,46.39C153.25,46.39 154.12,44.79 154.55,44.02C154.6,43.93 154.68,43.86 154.78,43.83C154.88,43.81 154.99,43.81 155.08,43.86C155.56,44.15 156.12,44.58 156.12,45.37C156.12,46.86 154.47,48.45 150.84,48.45M151.16,33.72C146.97,33.72 145.06,37.4 145.06,40.82C145.06,44.15 147.08,47.69 150.84,47.69C154.42,47.69 155.37,46.18 155.37,45.37C155.37,45.16 155.3,44.96 155.01,44.73C154.47,45.66 153.37,47.14 151.06,47.14C148.35,47.14 146.23,44.37 146.23,40.82C146.23,37.17 148.42,34.3 151.22,34.3C153.99,34.3 154.61,35.43 154.67,37.79C155.09,37.67 155.47,37.31 155.47,36.36C155.47,34.41 154.35,33.72 151.16,33.72"/>
	<path class="st1" d="M169.23,48.24C168.26,48.24 167.36,47.29 166.39,45.32C165.43,43.35 164.01,40.91 161.7,40.91L160.55,40.91L160.55,45.4C160.55,46.3 160.87,46.97 161.62,46.97L162.29,46.97L162.29,47.72L156.8,47.72L156.8,46.97L157.44,46.97C157.95,46.97 158.75,46.59 158.75,45.38L158.75,29.84C158.75,28.91 158.54,28.1 157.55,28.1L156.83,28.1L156.83,27.35L158.35,27.35C160.31,27.35 160.55,28.68 160.55,29.84L160.55,39.64L161.7,39.64C163.47,39.64 164.52,38.36 165.61,36.59C165.75,36.39 165.91,35.95 165.91,35.64C165.91,35.14 165.48,34.8 164.97,34.77L164.44,34.77L164.44,34.04L169.98,34.04L169.98,34.77L169.52,34.77C168.48,34.77 167.75,35.84 167.09,36.88C166.34,38.04 165.53,39.32 164.19,40.1C164.73,40.22 166.09,41.11 167.36,43.58C168.85,46.51 169.69,47 170.68,47C170.68,47.75 170.09,48.24 169.23,48.24"/>
	<path class="st1" d="M169.23,48.62C168.11,48.62 167.1,47.62 166.05,45.48C165.04,43.41 163.73,41.29 161.7,41.29L160.92,41.29L160.92,45.4C160.92,45.95 161.05,46.59 161.62,46.59L162.29,46.59C162.5,46.59 162.67,46.76 162.67,46.97L162.67,47.72C162.67,47.93 162.5,48.1 162.29,48.1L156.8,48.1C156.59,48.1 156.42,47.93 156.42,47.72L156.42,46.97C156.42,46.76 156.59,46.59 156.8,46.59L157.44,46.59C157.79,46.59 158.38,46.34 158.38,45.38L158.38,29.84C158.38,28.58 157.95,28.48 157.55,28.48L156.83,28.48C156.62,28.48 156.45,28.31 156.45,28.1L156.45,27.35C156.45,27.14 156.62,26.97 156.83,26.97L158.35,26.97C160.92,26.97 160.92,29.13 160.92,29.84L160.92,39.26L161.7,39.26C163.22,39.26 164.17,38.21 165.29,36.39C165.39,36.24 165.53,35.88 165.53,35.64C165.53,35.33 165.24,35.16 164.95,35.14L164.43,35.14C164.23,35.14 164.06,34.97 164.06,34.77L164.06,34.04C164.06,33.83 164.23,33.66 164.43,33.66L169.98,33.66C170.19,33.66 170.36,33.83 170.36,34.04L170.36,34.77C170.36,34.97 170.19,35.14 169.98,35.14L169.52,35.14C168.71,35.14 168.09,36.02 167.41,37.09L167.35,37.16C166.72,38.14 166.01,39.24 164.96,40.04C165.69,40.5 166.72,41.51 167.69,43.41C169.21,46.38 169.94,46.62 170.68,46.62C170.88,46.62 171.05,46.79 171.05,47C171.05,47.95 170.3,48.62 169.23,48.62M160.55,40.53L161.7,40.53C164.14,40.53 165.61,42.87 166.73,45.15C167.62,46.98 168.44,47.87 169.23,47.87C169.64,47.87 170.08,47.72 170.23,47.34C169.26,47.18 168.38,46.4 167.02,43.75C165.77,41.31 164.47,40.55 164.11,40.47C163.96,40.43 163.84,40.31 163.82,40.16C163.8,40.01 163.87,39.85 164,39.78C165.23,39.05 165.99,37.89 166.72,36.76C167.36,35.76 168.09,34.61 169.19,34.42L165.2,34.42C165.84,34.54 166.29,35.04 166.29,35.64C166.29,36.03 166.1,36.54 165.93,36.8C164.92,38.42 163.76,40.01 161.7,40.01L160.55,40.01C160.34,40.01 160.17,39.85 160.17,39.64L160.17,29.84C160.17,28.57 159.86,27.72 158.35,27.72L157.6,27.72C158.62,27.75 159.13,28.46 159.13,29.84L159.13,45.38C159.13,46.79 158.16,47.32 157.48,47.35L161.57,47.35C160.7,47.32 160.17,46.6 160.17,45.4L160.17,40.91C160.17,40.7 160.34,40.53 160.55,40.53"/>
	<path class="st1" d="M185.75,46.97L185.75,47.72L183.76,47.72C182.66,47.72 181.89,47.2 181.89,46.01L181.89,45.11C181.11,46.77 179.47,48.1 177.33,48.1C174.11,48.1 172.94,46.13 172.94,43.58L172.94,36.74C172.94,35.84 172.7,34.8 171.25,34.8L170.82,34.8L170.82,34.04L172.91,34.04C173.85,34.04 174.71,34.68 174.71,36.07L174.71,42.62C174.71,45.58 175.67,46.88 177.6,46.88C180.04,46.88 181.89,43.95 181.89,40.91L181.89,36.71C181.89,35.81 181.89,34.8 180.25,34.8L180.25,34.04L182.07,34.04C183.47,34.04 183.66,35.23 183.66,35.69L183.66,45.32C183.66,46.13 184,46.97 185.26,46.97Z"/>
	<path class="st1" d="M177.33,48.48C174.26,48.48 172.56,46.74 172.56,43.58L172.56,36.74C172.56,35.64 172.17,35.17 171.25,35.17L170.82,35.17C170.61,35.17 170.44,35 170.44,34.8L170.44,34.04C170.44,33.83 170.61,33.66 170.82,33.66L172.91,33.66C173.99,33.66 175.08,34.41 175.08,36.07L175.08,42.62C175.08,46.06 176.43,46.5 177.6,46.5C179.68,46.5 181.51,43.89 181.51,40.91L181.51,36.71C181.51,35.7 181.45,35.17 180.25,35.17C180.04,35.17 179.88,35 179.88,34.8L179.88,34.04C179.88,33.83 180.04,33.66 180.25,33.66L182.07,33.66C183.52,33.66 184.03,34.76 184.03,35.69L184.03,45.32C184.03,46.59 184.96,46.59 185.26,46.59L185.74,46.59C185.95,46.59 186.12,46.76 186.12,46.97L186.12,47.72C186.12,47.93 185.95,48.1 185.74,48.1L183.76,48.1C182.5,48.1 181.69,47.47 181.54,46.4C180.51,47.7 178.99,48.48 177.33,48.48M171.2,34.42L171.25,34.42C172.19,34.42 173.31,34.82 173.31,36.74L173.31,43.58C173.31,46.33 174.67,47.72 177.33,47.72C179.48,47.72 180.92,46.29 181.55,44.95C181.62,44.79 181.8,44.71 181.97,44.75C182.14,44.78 182.26,44.94 182.26,45.11L182.26,46.01C182.26,46.9 182.77,47.35 183.76,47.35L185.2,47.35C184,47.32 183.28,46.56 183.28,45.32L183.28,35.69C183.28,35.31 183.16,34.42 182.07,34.42L180.63,34.44C182.26,34.61 182.26,35.91 182.26,36.71L182.26,40.91C182.26,43.98 180.39,47.26 177.6,47.26C175.4,47.26 174.33,45.74 174.33,42.62L174.33,36.07C174.33,34.85 173.6,34.42 172.91,34.42Z"/>
	<path class="st1" d="M191.17,41.95C190.96,41.72 190.85,41.14 190.85,40.97C190.85,40.07 192.08,40.07 193.21,40.07L196.47,40.07C197.04,40.07 197.31,39.9 197.31,39.29C197.31,36.85 196.13,34.59 193.5,34.59C190.37,34.59 188.92,37.78 188.92,40.97C188.92,43.87 190.63,46.8 193.31,46.8C195.94,46.8 196.96,45.23 197.52,44.24C197.95,44.42 198.35,45 198.35,45.35C198.35,46.62 196.82,48.07 193.31,48.07C188.89,48.07 187.07,44.22 187.07,40.97C187.07,36.68 189.27,33.32 193.58,33.32C196.77,33.32 199.07,35.75 199.07,39.26C199.07,41.38 198.4,41.38 196.8,41.38C192.62,41.38 191.92,41.52 191.17,41.95"/>
	<path class="st1" d="M193.31,48.45C188.76,48.45 186.69,44.57 186.69,40.97C186.69,36.09 189.4,32.94 193.58,32.94C196.98,32.94 199.45,35.6 199.45,39.26C199.45,41.64 198.54,41.75 196.8,41.75C192.66,41.75 192.02,41.9 191.36,42.28C191.21,42.37 191.01,42.34 190.89,42.21C190.57,41.86 190.47,41.14 190.47,40.97C190.47,39.69 192.05,39.69 193.21,39.69L196.47,39.69C196.89,39.69 196.93,39.63 196.93,39.29C196.93,37.3 196.03,34.97 193.5,34.97C190.6,34.97 189.3,37.98 189.3,40.97C189.3,43.59 190.83,46.42 193.31,46.42C195.85,46.42 196.76,44.82 197.19,44.06C197.29,43.89 197.49,43.83 197.66,43.89C198.21,44.12 198.73,44.82 198.73,45.34C198.73,46.84 197.03,48.45 193.31,48.45M193.58,33.69C189.06,33.69 187.45,37.45 187.45,40.97C187.45,44.21 189.28,47.69 193.31,47.69C196.37,47.69 197.97,46.51 197.97,45.34C197.97,45.22 197.83,44.97 197.64,44.78C197.08,45.7 195.92,47.17 193.31,47.17C190.33,47.17 188.54,44.02 188.54,40.97C188.54,37.61 190.08,34.22 193.5,34.22C196.59,34.22 197.68,36.95 197.68,39.29C197.68,40.45 196.77,40.45 196.47,40.45L193.21,40.45C192.09,40.45 191.23,40.49 191.23,40.97C191.23,41.06 191.27,41.27 191.33,41.45C192.11,41.1 193.21,41 196.8,41C198.41,41 198.7,41 198.7,39.26C198.7,35.98 196.59,33.69 193.58,33.69"/>
	<path class="st1" d="M234.56,47.72L228.72,47.72L228.72,46.85L229.02,46.85C229.79,46.85 229.96,46.1 229.96,45.55C229.96,45.37 229.77,43.26 229.55,40.88C229.28,37.75 228.91,33.58 228.8,32.16C228.8,31.84 228.8,31.32 228.77,31.32C228.67,31.32 227.87,33.43 226.69,36.62C225.72,39.2 224.44,42.74 222.88,46.39C222.42,47.46 221.78,47.72 221.06,47.72C220.63,47.72 220.31,47.46 220.31,47.32C220.39,47.14 220.47,46.85 220.47,46.3C220.47,44.94 217.58,38.33 216.53,35.66C215.25,32.36 214.82,31.26 214.74,31.26C214.58,31.26 213.66,44.62 213.66,45.2C213.66,46.22 213.91,46.85 214.63,46.85L214.92,46.85L214.92,47.72L209.35,47.72L209.35,46.85L209.83,46.85C211.25,46.85 211.76,45.61 211.82,44.88L213.02,30.62C213.02,29.64 212.43,28.94 211.39,28.94L210.69,28.94L210.69,28.1L213.69,28.1C215.27,28.1 215.86,28.65 216.64,30.56C218.54,35.23 220.2,39.52 221.97,44.33C223.95,39.35 225.16,35.35 226.85,31.14C227.14,30.42 228.05,28.1 230.06,28.1L233.06,28.1L233.06,28.94L232.15,28.94C231.27,28.94 230.68,29.35 230.68,30.19C230.71,30.68 230.87,32.65 232.02,44.77C232.15,46.07 233.01,46.85 233.95,46.85L234.56,46.85Z"/>
	<path class="st1" d="M234.56,48.1L228.72,48.1C228.51,48.1 228.35,47.93 228.35,47.72L228.35,46.85C228.35,46.64 228.51,46.48 228.72,46.48L229.02,46.48C229.39,46.48 229.58,46.17 229.58,45.55C229.58,45.33 229.3,42.24 229.18,40.92L228.9,37.68C228.74,35.84 228.58,34.04 228.49,32.91C228.02,34.09 227.41,35.76 227.04,36.75L226.65,37.8C225.73,40.28 224.58,43.35 223.23,46.54C222.77,47.6 222.08,48.1 221.06,48.1C220.47,48.1 219.93,47.73 219.93,47.32C219.93,47.26 219.95,47.21 219.97,47.16C220.05,46.98 220.09,46.69 220.09,46.3C220.09,45.34 218.33,41.06 217.17,38.23C216.78,37.28 216.43,36.43 216.18,35.8C215.64,34.42 215.23,33.37 214.95,32.64C214.64,35.95 214.04,44.56 214.04,45.2C214.04,46.48 214.44,46.48 214.63,46.48L214.92,46.48C215.13,46.48 215.3,46.64 215.3,46.85L215.3,47.72C215.3,47.93 215.13,48.1 214.92,48.1L209.35,48.1C209.14,48.1 208.97,47.93 208.97,47.72L208.97,46.85C208.97,46.64 209.14,46.48 209.35,46.48L209.83,46.48C211.01,46.48 211.4,45.41 211.44,44.85L212.65,30.59C212.65,29.79 212.19,29.32 211.39,29.32L210.69,29.32C210.48,29.32 210.31,29.15 210.31,28.94L210.31,28.1C210.31,27.89 210.48,27.72 210.69,27.72L213.69,27.72C215.58,27.72 216.23,28.55 216.99,30.42C218.76,34.78 220.32,38.78 221.98,43.27C222.83,41.1 223.53,39.11 224.21,37.18C224.96,35.07 225.67,33.07 226.5,31C226.83,30.17 227.82,27.72 230.06,27.72L233.06,27.72C233.27,27.72 233.44,27.89 233.44,28.1L233.44,28.94C233.44,29.15 233.27,29.32 233.06,29.32L232.15,29.32C231.42,29.32 231.06,29.61 231.06,30.19C231.08,30.68 231.26,32.8 232.39,44.73C232.5,45.76 233.14,46.48 233.95,46.48L234.56,46.48C234.77,46.48 234.94,46.64 234.94,46.85L234.94,47.72C234.94,47.93 234.77,48.1 234.56,48.1M229.1,47.35L234.19,47.35L234.19,47.23L233.95,47.23C232.74,47.23 231.79,46.23 231.64,44.8C230.51,32.86 230.33,30.73 230.3,30.21C230.3,29.18 231.01,28.56 232.15,28.56L232.68,28.56L232.68,28.48L230.06,28.48C228.33,28.48 227.49,30.57 227.21,31.26C226.37,33.33 225.67,35.33 224.92,37.44C224.14,39.64 223.34,41.92 222.32,44.47C222.26,44.61 222.13,44.71 221.97,44.71L221.97,44.71C221.81,44.71 221.67,44.61 221.62,44.46C219.83,39.6 218.19,35.35 216.29,30.71C215.55,28.89 215.07,28.48 213.69,28.48L211.07,28.48L211.07,28.56L211.39,28.56C212.59,28.56 213.4,29.39 213.4,30.62L212.19,44.91C212.13,45.71 211.56,47.23 209.83,47.23L209.73,47.23L209.73,47.35L214.55,47.35L214.55,47.23C213.71,47.19 213.29,46.5 213.29,45.2C213.29,44.88 213.53,41.24 213.76,37.98C214.28,30.88 214.28,30.88 214.74,30.88C215.08,30.88 215.08,30.88 216.88,35.53C217.13,36.16 217.48,37 217.87,37.95C219.5,41.91 220.85,45.27 220.85,46.3C220.85,46.69 220.81,47.01 220.73,47.26C220.8,47.3 220.92,47.35 221.06,47.35C221.58,47.35 222.12,47.21 222.54,46.24C223.88,43.07 225.03,40 225.94,37.54L226.33,36.49C228.39,30.94 228.41,30.94 228.77,30.94C229.18,30.94 229.18,31.17 229.18,32.16C229.25,33.09 229.45,35.31 229.65,37.62L229.93,40.85C230.22,44.11 230.33,45.39 230.33,45.55C230.33,46.57 229.87,47.19 229.1,47.23Z"/>
	<path class="st1" d="M248.73,46.97L248.73,47.72L247.37,47.72C245.22,47.72 245.17,46.13 245.17,45.32L245.17,40.88L243.43,40.88C240.13,40.88 238.25,41.69 238.25,44.04C238.25,45.93 239.62,46.74 240.77,46.74C242.57,46.74 243.32,45.43 243.32,45.43C243.43,45.43 243.88,45.81 243.88,46.24C243.88,46.85 243.61,47.92 240.69,47.92C239.03,47.92 236.38,46.94 236.38,44.01C236.38,40.45 239.54,39.64 243.45,39.64L245.17,39.64L245.17,38.27C245.17,36.97 245.11,34.56 242.14,34.56C239.51,34.56 238.76,36.5 238.76,37.9C238.76,37.9 237.45,37.87 237.45,36.36C237.45,34.59 239.46,33.32 242.14,33.32C245.09,33.32 246.96,34.53 246.96,38.27L246.96,44.79C246.96,46.16 247.31,46.97 248.33,46.97Z"/>
	<path class="st1" d="M240.69,48.3C238.81,48.3 236,47.16 236,44.01C236,39.75 240.25,39.26 243.45,39.26L244.79,39.26L244.79,38.27C244.79,36.66 244.58,34.94 242.14,34.94C239.29,34.94 239.14,37.4 239.14,37.9C239.14,38 239.1,38.09 239.03,38.16C238.96,38.24 238.85,38.26 238.75,38.27C238.17,38.26 237.07,37.84 237.07,36.36C237.07,34.38 239.2,32.94 242.14,32.94C245.64,32.94 247.34,34.68 247.34,38.27L247.34,44.79C247.34,46.37 247.81,46.59 248.33,46.59L248.73,46.59C248.94,46.59 249.11,46.76 249.11,46.97L249.11,47.72C249.11,47.93 248.94,48.1 248.73,48.1L247.37,48.1C244.79,48.1 244.79,46 244.79,45.32L244.79,41.26L243.43,41.26C240.06,41.26 238.63,42.09 238.63,44.04C238.63,45.63 239.74,46.36 240.77,46.36C242.33,46.36 242.98,45.26 242.99,45.25C243.06,45.13 243.18,45.06 243.32,45.06C243.67,45.06 244.26,45.63 244.26,46.24C244.26,47.61 243.06,48.3 240.69,48.3M243.45,40.01C238.82,40.01 236.75,41.25 236.75,44.01C236.75,46.61 239.11,47.55 240.69,47.55C242.56,47.55 243.5,47.11 243.5,46.24C243.5,46.15 243.45,46.05 243.39,45.96C243.01,46.41 242.17,47.11 240.77,47.11C239.33,47.11 237.88,46.06 237.88,44.04C237.88,40.87 241.04,40.5 243.43,40.5L245.17,40.5C245.37,40.5 245.54,40.67 245.54,40.88L245.54,45.32C245.54,46.3 245.68,47.35 247.37,47.35L248.27,47.35C246.59,47.3 246.59,45.42 246.59,44.79L246.59,38.27C246.59,35.11 245.21,33.69 242.14,33.69C239.68,33.69 237.83,34.84 237.83,36.36C237.83,37.03 238.14,37.31 238.41,37.43C238.58,35.84 239.62,34.19 242.14,34.19C245.54,34.19 245.54,37.16 245.54,38.27L245.54,39.64C245.54,39.84 245.37,40.01 245.17,40.01Z"/>
	<path class="st1" d="M252.2,40.82C252.2,44.13 254.1,46.77 256.65,46.77C259.08,46.77 260.05,44.97 260.48,44.19C261.07,44.53 261.34,44.88 261.34,45.38C261.34,46.48 260.1,48.07 256.43,48.07C252.44,48.07 250.27,44.36 250.27,40.82C250.27,37.29 252.28,33.35 256.75,33.35C259.83,33.35 261.44,33.98 261.44,36.36C261.44,37.75 260.66,38.22 259.89,38.22C259.89,35.66 259.43,34.68 256.81,34.68C254.13,34.68 252.2,37.46 252.2,40.82"/>
	<path class="st1" d="M256.43,48.45C252.18,48.45 249.89,44.52 249.89,40.82C249.89,37.04 252.04,32.97 256.75,32.97C259.38,32.97 261.82,33.38 261.82,36.36C261.82,38.01 260.82,38.59 259.89,38.59C259.68,38.59 259.51,38.42 259.51,38.22C259.51,35.81 259.14,35.06 256.81,35.06C254.43,35.06 252.57,37.59 252.57,40.82C252.57,43.94 254.36,46.39 256.65,46.39C258.84,46.39 259.72,44.79 260.14,44.02C260.19,43.93 260.27,43.86 260.37,43.83C260.47,43.81 260.58,43.81 260.67,43.86C261.16,44.15 261.71,44.58 261.71,45.37C261.71,46.86 260.06,48.45 256.43,48.45M256.75,33.72C252.56,33.72 250.65,37.4 250.65,40.82C250.65,44.15 252.67,47.69 256.43,47.69C260.01,47.69 260.96,46.18 260.96,45.37C260.96,45.16 260.89,44.96 260.6,44.73C260.06,45.66 258.96,47.14 256.65,47.14C253.94,47.14 251.82,44.37 251.82,40.82C251.82,37.17 254.01,34.3 256.81,34.3C259.58,34.3 260.2,35.43 260.26,37.79C260.68,37.67 261.06,37.31 261.06,36.36C261.06,34.41 259.94,33.72 256.75,33.72"/>
	<path class="st1" d="M261.99,46.79C261.99,46.1 262.34,45.23 262.66,44.56C266.49,36.91 266.54,36.01 266.54,35.06C266.54,34.42 266.03,33.9 265.76,33.9C265.76,33.9 266.14,33.43 267.05,33.43C268.2,33.43 268.66,34.19 269.09,35.06C270.26,38.19 271.26,41.84 272.62,45.49C272.97,46.42 273.67,46.97 274.23,46.97L274.58,46.97L274.58,47.72L269.14,47.72L269.14,46.97L269.86,46.97C270.62,46.97 270.85,46.39 270.85,45.9C270.85,45.78 270.8,45.2 267.8,36.1C266.76,39.72 265.39,41.75 264.1,44.97C263.89,45.66 263.76,46.13 263.76,46.56C263.76,47.43 264.32,47.81 264.32,47.81C264.32,47.81 263.81,48.07 263.33,48.07C262.52,48.07 261.99,47.72 261.99,46.79"/>
	<path class="st1" d="M263.32,48.45C262.24,48.45 261.61,47.85 261.61,46.8C261.61,46.18 261.85,45.37 262.32,44.4C266.17,36.71 266.17,35.91 266.17,35.05C266.17,34.64 265.84,34.3 265.74,34.27C265.59,34.27 265.47,34.19 265.41,34.06C265.35,33.93 265.38,33.77 265.47,33.66C265.52,33.6 265.99,33.06 267.05,33.06C268.52,33.06 269.07,34.16 269.43,34.89C270.01,36.45 270.54,38.08 271.09,39.8C271.67,41.61 272.28,43.49 272.98,45.36C273.28,46.16 273.85,46.59 274.23,46.59L274.58,46.59C274.79,46.59 274.96,46.76 274.96,46.97L274.96,47.72C274.96,47.93 274.79,48.1 274.58,48.1L269.14,48.1C268.93,48.1 268.76,47.93 268.76,47.72L268.76,46.97C268.76,46.76 268.93,46.59 269.14,46.59L269.86,46.59C270.37,46.59 270.48,46.21 270.48,45.9C270.47,45.76 270.24,44.73 267.81,37.34C267.23,39.07 266.58,40.44 265.9,41.88C265.43,42.88 264.93,43.92 264.46,45.11C264.26,45.73 264.13,46.18 264.13,46.56C264.13,47.21 264.52,47.49 264.53,47.5C264.64,47.58 264.7,47.7 264.69,47.84C264.68,47.97 264.61,48.09 264.49,48.15C264.43,48.18 263.88,48.45 263.32,48.45M266.46,33.9C266.72,34.19 266.92,34.61 266.92,35.05C266.92,36.04 266.92,36.89 263,44.73C262.58,45.58 262.36,46.3 262.36,46.8C262.36,47.43 262.64,47.69 263.32,47.69C263.44,47.69 263.56,47.67 263.67,47.64C263.52,47.39 263.38,47.04 263.38,46.56C263.38,46.07 263.52,45.57 263.74,44.86C264.24,43.62 264.74,42.57 265.22,41.55C266.03,39.84 266.79,38.23 267.44,36C267.49,35.84 267.63,35.72 267.8,35.72L267.8,35.72C267.96,35.72 268.11,35.83 268.16,35.98C271.23,45.3 271.23,45.73 271.23,45.9C271.23,46.6 270.82,47.32 269.91,47.35L274.19,47.35C273.43,47.32 272.64,46.62 272.27,45.62C271.56,43.73 270.96,41.85 270.37,40.03C269.82,38.32 269.3,36.7 268.74,35.19C268.34,34.39 267.98,33.81 267.05,33.81C266.81,33.81 266.61,33.85 266.46,33.9"/>
	<path class="st1" d="M287.21,46.97L287.21,47.72L285.84,47.72C283.7,47.72 283.64,46.13 283.64,45.32L283.64,40.88L281.9,40.88C278.6,40.88 276.73,41.69 276.73,44.04C276.73,45.93 278.09,46.74 279.25,46.74C281.04,46.74 281.79,45.43 281.79,45.43C281.9,45.43 282.35,45.81 282.35,46.24C282.35,46.85 282.09,47.92 279.17,47.92C277.51,47.92 274.85,46.94 274.85,44.01C274.85,40.45 278.01,39.64 281.93,39.64L283.64,39.64L283.64,38.27C283.64,36.97 283.59,34.56 280.61,34.56C277.99,34.56 277.24,36.5 277.24,37.9C277.24,37.9 275.93,37.87 275.93,36.36C275.93,34.59 277.93,33.32 280.61,33.32C283.56,33.32 285.44,34.53 285.44,38.27L285.44,44.79C285.44,46.16 285.79,46.97 286.8,46.97Z"/>
	<path class="st1" d="M279.17,48.3C277.28,48.3 274.48,47.16 274.48,44.01C274.48,39.75 278.73,39.26 281.93,39.26L283.27,39.26L283.27,38.27C283.27,36.66 283.06,34.94 280.61,34.94C277.76,34.94 277.61,37.4 277.61,37.9C277.61,38 277.57,38.09 277.5,38.16C277.43,38.24 277.31,38.26 277.23,38.27C276.65,38.26 275.55,37.84 275.55,36.36C275.55,34.38 277.68,32.94 280.61,32.94C284.11,32.94 285.81,34.68 285.81,38.27L285.81,44.79C285.81,46.37 286.29,46.59 286.8,46.59L287.21,46.59C287.41,46.59 287.58,46.76 287.58,46.97L287.58,47.72C287.58,47.93 287.41,48.1 287.21,48.1L285.84,48.1C283.27,48.1 283.27,46 283.27,45.32L283.27,41.26L281.9,41.26C278.54,41.26 277.1,42.09 277.1,44.04C277.1,45.63 278.22,46.36 279.25,46.36C280.81,46.36 281.46,45.26 281.46,45.25C281.53,45.13 281.66,45.06 281.79,45.06C282.15,45.06 282.73,45.63 282.73,46.24C282.73,47.61 281.53,48.3 279.17,48.3M281.93,40.01C277.3,40.01 275.23,41.25 275.23,44.01C275.23,46.61 277.58,47.55 279.17,47.55C281.03,47.55 281.98,47.11 281.98,46.24C281.98,46.15 281.93,46.05 281.86,45.96C281.48,46.41 280.65,47.11 279.25,47.11C277.81,47.11 276.35,46.06 276.35,44.04C276.35,40.87 279.52,40.5 281.9,40.5L283.64,40.5C283.85,40.5 284.02,40.67 284.02,40.88L284.02,45.32C284.02,46.3 284.16,47.35 285.84,47.35L286.75,47.35C285.06,47.3 285.06,45.42 285.06,44.79L285.06,38.27C285.06,35.11 283.69,33.69 280.61,33.69C278.16,33.69 276.3,34.84 276.3,36.36C276.3,37.03 276.61,37.31 276.88,37.43C277.05,35.84 278.09,34.19 280.61,34.19C284.02,34.19 284.02,37.16 284.02,38.27L284.02,39.64C284.02,39.84 283.85,40.01 283.64,40.01Z"/>
	<path class="st2" d="M17.27,13.86C15.4,14.43 13.17,15 11.19,14.15C11.86,16.5 10.24,18.61 9.44,20.82C8.53,23.33 7.88,28.02 9.95,30.11C11.98,32.17 13.86,31.47 16.86,32.93C16.14,29.17 19.73,25.76 19.54,22.18C19.59,23.24 20.75,23.74 21.6,23.93C21.58,22.55 21.77,22.14 22,21.27C22.24,20.36 22.76,19.46 22.38,18.49C23.48,18.91 25.5,17.86 27.46,18.07C26.64,15.87 25.86,15.07 24.64,14.29C22.72,13.08 20.05,13 17.27,13.86"/>
	<path class="st1" d="M16.86,36.7C16.3,36.7 15.74,36.57 15.22,36.32C14.37,35.91 13.65,35.75 12.81,35.56C11.22,35.2 9.24,34.76 7.27,32.76C3.71,29.16 4.73,22.76 5.89,19.54C6.14,18.84 6.46,18.16 6.77,17.48C7.15,16.67 7.67,15.56 7.56,15.18C7.17,13.78 7.61,12.28 8.7,11.32C9.79,10.36 11.34,10.11 12.68,10.69C13.38,10.99 14.84,10.66 16.17,10.25C20.11,9.04 23.87,9.34 26.65,11.11C28.76,12.44 29.97,14.02 31,16.75C31.45,17.97 31.24,19.35 30.44,20.38C29.64,21.42 28.38,21.97 27.06,21.82C26.66,21.8 26.17,21.89 25.72,21.98C25.69,22.06 25.67,22.14 25.64,22.23L25.53,22.65C25.44,22.96 25.4,23.12 25.38,23.36C25.41,23.55 25.42,23.74 25.42,23.93C25.42,25.88 23.94,27.49 22.04,27.68C21.9,28.01 21.76,28.32 21.62,28.64C21.07,29.87 20.55,31.03 20.54,31.88C20.63,32.21 20.69,32.56 20.69,32.93C20.69,35.01 19,36.7 16.91,36.7ZM14.6,18.3C14.3,19.18 13.93,19.97 13.61,20.67C13.39,21.14 13.16,21.62 12.98,22.1C12.17,24.35 12.22,26.92 12.65,27.48C12.93,27.76 13.12,27.87 13.72,28.03C14.03,27.15 14.39,26.32 14.73,25.57C15.26,24.37 15.81,23.13 15.77,22.38C15.68,20.55 16.9,18.96 18.61,18.53C18.6,18.13 18.67,17.73 18.79,17.34C18.65,17.38 18.52,17.42 18.38,17.46C17.2,17.82 15.94,18.16 14.6,18.3"/>
	<path class="st2" d="M45.68,12.85C42.74,12.58 39.93,13.01 37.91,16.25C36.05,19.25 35.93,23.12 35.14,26.27C34.87,27.34 34.61,28.36 34.03,29.28C33.14,25.8 32.8,22.2 34.27,18.84C36.05,14.73 40.42,10.96 39.55,6.13C39.41,5.32 38.44,4.46 38.39,3.77C38.83,10.42 28.11,8.01 27.98,15.29C27.92,18.83 29.98,20.27 31.46,23.04C30.81,22.28 30.05,21.95 29.41,21.88C27.63,21.68 24.98,23.01 23.19,22.71C23.07,24.63 21.89,26.74 21.45,28.65C20.96,30.86 20.66,33.23 21.2,35.46C20.32,35.5 19.69,35.19 18.75,34.87C16.57,33.87 14.23,33.11 11.99,33.24C10.24,33.34 7.88,34.07 6.37,35.57C5.22,36.71 4.63,38.49 4.3,40.06C4.13,40.92 4.96,43.64 3.77,44.03C5.8,43.37 7.15,44.76 9.08,45C10.89,45.22 12.89,45.02 14.6,44.4C16.35,43.76 18.26,42.49 19.54,41.15C21.89,38.71 23.78,37.5 27.17,38.35C32.11,39.59 34.82,44.41 35.53,50.24C36.35,47.41 37.04,45.89 36.9,42.22C36.77,38.84 35.66,35.59 36.51,32.53C38.09,26.85 39.29,28.31 43.96,26.1C47.91,24.23 49.63,21.09 50.05,18.46C50.35,16.66 50.26,14.83 51.53,13.39C49.82,14.19 48.1,13.06 45.68,12.85"/>
	<path class="st1" d="M35.53,54.01C35.43,54.01 35.33,54.01 35.23,54C33.44,53.86 32,52.47 31.79,50.7C31.51,48.43 30.43,43.05 26.25,42.01C25.83,41.9 25.47,41.85 25.16,41.85C24.58,41.85 23.97,41.99 22.26,43.76C20.55,45.54 18.17,47.11 15.9,47.94C13.67,48.75 11.04,49.04 8.61,48.74C7.43,48.59 6.49,48.22 5.73,47.93C5.44,47.82 5.06,47.67 4.88,47.63C2.91,48.24 0.81,47.15 0.18,45.18C-0.18,44.05 0.01,42.87 0.62,41.95C0.61,41.86 0.6,41.76 0.59,41.67C0.51,40.92 0.44,40.14 0.61,39.3C1.2,36.48 2.21,34.39 3.71,32.9C6.05,30.57 9.42,29.61 11.78,29.47C13.48,29.37 15.32,29.64 17.33,30.27C17.45,29.36 17.62,28.53 17.78,27.82C18.01,26.8 18.35,25.86 18.69,24.95C19.02,24.07 19.39,23.06 19.43,22.47C19.49,21.41 20.01,20.42 20.84,19.76C21.68,19.09 22.76,18.81 23.81,18.99C24,18.99 24.34,18.92 24.72,18.83C24.39,17.8 24.19,16.61 24.21,15.22C24.32,9.1 29.14,7.02 32.01,5.78C32.84,5.42 34.39,4.76 34.61,4.38C34.61,4.38 34.65,4.28 34.63,4.02C34.63,4.02 34.63,4.01 34.63,4.01C34.5,1.93 36.07,0.14 38.15,0C39.95,-0.1 41.54,1.06 42.02,2.72L42.09,2.84C42.48,3.43 43.07,4.32 43.27,5.5C43.49,6.75 43.49,7.93 43.32,9.04C44.19,8.98 45.11,9.01 46.02,9.09C47.19,9.2 48.18,9.45 48.98,9.65C49.38,9.75 49.86,9.87 50.12,9.9C51.69,9.26 53.52,9.76 54.55,11.14C55.62,12.57 55.54,14.55 54.35,15.89C54.14,16.13 54.04,16.95 53.95,17.75C53.9,18.19 53.85,18.62 53.78,19.06C53.04,23.59 50.05,27.39 45.57,29.51C44.12,30.2 42.95,30.58 42.09,30.87C41.65,31.01 41.1,31.19 40.95,31.29C40.96,31.29 40.69,31.57 40.14,33.54C39.79,34.8 40.02,36.43 40.28,38.3C40.44,39.5 40.62,40.74 40.67,42.07C40.81,45.84 40.2,47.84 39.49,50.15L39.15,51.29C38.68,52.92 37.2,54.01 35.53,54.01M8.08,40.75C8.21,40.8 8.34,40.85 8.47,40.9C8.89,41.07 9.29,41.22 9.55,41.26C10.79,41.41 12.21,41.26 13.31,40.85C14.5,40.42 15.91,39.49 16.83,38.54C16.91,38.44 17,38.35 17.09,38.26C15.22,37.41 13.71,36.99 12.5,36.99L12.21,37C11.22,37.06 9.76,37.51 9.02,38.25C8.89,38.38 8.43,38.94 8.06,40.55C8.06,40.61 8.07,40.68 8.08,40.75M25.16,34.31C26.1,34.31 27.05,34.43 28.09,34.69C29.7,35.1 31.18,35.78 32.49,36.71C32.39,35.44 32.38,34.12 32.6,32.76C31.52,32.32 30.68,31.39 30.38,30.22C30.09,29.1 29.8,27.78 29.63,26.34C29.31,26.16 29.01,25.93 28.75,25.65C28.37,25.71 27.79,25.85 27.33,25.96C26.98,26.05 26.62,26.14 26.25,26.22C26.09,26.69 25.92,27.14 25.76,27.57C25.52,28.22 25.27,28.87 25.13,29.48C24.67,31.52 24.57,33.07 24.81,34.31C24.92,34.31 25.04,34.31 25.16,34.31M44.33,16.55C42.71,16.55 41.9,16.98 41.11,18.25C40.22,19.69 39.85,21.67 39.48,23.79C39.56,23.76 39.64,23.73 39.73,23.7C40.51,23.45 41.32,23.18 42.35,22.69C45.36,21.27 46.14,19.05 46.33,17.86C46.39,17.53 46.42,17.2 46.46,16.87C46.46,16.85 46.47,16.82 46.47,16.8C46.09,16.71 45.71,16.63 45.35,16.6C45.01,16.57 44.67,16.55 44.33,16.55M32.79,13.77C31.9,14.31 31.77,14.69 31.75,15.35C31.75,15.39 31.75,15.43 31.75,15.46C32.08,14.88 32.43,14.32 32.79,13.77"/>
	<path class="st3" d="M57.2,14.26C57.28,18.17 52.74,22.82 49.71,24.64C45.48,27.16 43.09,28.43 41.15,31.28C39.9,33.13 39.49,34.97 39.77,36.96C40.02,38.73 40.8,40.06 41.04,41.82C41.29,43.55 40.68,44.8 39.63,45.63C40.05,42.2 39.81,39.59 39.2,37.98C38.8,36.9 38.07,36.09 37.11,35.67C38.47,39.12 38.04,42.89 37.43,45.65C36.94,47.91 36.11,50.57 36.01,53.19C34.7,52.88 33.65,52.16 32.97,50.78C32.19,49.21 31.38,47.24 29.87,45.97C26.19,42.86 20.13,44.72 16.16,46.09C13.33,47.06 7.38,49.15 4.73,46.78C7.2,49.56 14.88,55.53 21.82,54.96C28.69,54.4 35.25,51.53 37.41,60.61C37.71,61.86 39.19,62.67 39.98,63.04C39.42,60.19 38.95,57.75 39.42,53.21C39.82,49.41 41.41,45.29 44.31,41.41C47.5,37.16 51.83,33.9 54.43,29.19C56.8,24.87 58.13,19.17 57.2,14.26"/>
	<path class="st1" d="M39.98,66.82C39.43,66.82 38.89,66.7 38.38,66.46C35.17,64.95 34.08,62.92 33.74,61.49C32.88,57.86 31.6,57.86 29.97,57.86C28.78,57.86 27.35,58.06 25.83,58.27C24.62,58.44 23.38,58.62 22.13,58.72C13.21,59.45 4.2,51.86 1.91,49.28C0.58,47.79 0.65,45.52 2.06,44.11C3.48,42.69 5.75,42.63 7.24,43.96C7.28,43.98 7.61,44.1 8.29,44.1C10.36,44.1 13.16,43.13 14.83,42.55C17.98,41.47 21.25,40.51 24.58,40.51C27.68,40.51 30.27,41.37 32.3,43.09C32.87,43.57 33.36,44.1 33.79,44.64C34.44,41.56 34.37,39.01 33.6,37.05C33.04,35.63 33.4,34.02 34.49,32.96C35.08,32.39 35.82,32.04 36.6,31.93C36.95,30.98 37.43,30.06 38.04,29.16C40.28,25.86 42.99,24.25 46.74,22.02L47.77,21.4C50.56,19.73 53.47,16.1 53.44,14.34C53.4,12.38 54.87,10.72 56.82,10.51C58.75,10.31 60.55,11.64 60.91,13.56C61.94,19 60.75,25.52 57.73,31C55.95,34.25 53.56,36.77 51.26,39.2C49.83,40.71 48.48,42.14 47.33,43.67C44.96,46.84 43.52,50.28 43.17,53.61C42.76,57.59 43.15,59.58 43.68,62.32C43.95,63.72 43.42,65.15 42.3,66.02C41.62,66.54 40.8,66.82 39.98,66.82M16.01,50.12C17.86,50.88 19.74,51.35 21.51,51.2C22.62,51.11 23.72,50.96 24.78,50.8C26.02,50.63 27.29,50.45 28.55,50.37C28.21,49.74 27.84,49.19 27.44,48.85C26.8,48.31 25.86,48.05 24.58,48.05C22.36,48.05 19.81,48.82 17.39,49.65C16.97,49.8 16.51,49.95 16.01,50.12M50.35,28.64C46.95,30.66 45.5,31.6 44.27,33.4C43.58,34.42 43.35,35.33 43.51,36.43C43.51,36.44 43.51,36.45 43.51,36.46C44.26,35.62 45.03,34.81 45.78,34.02C47.48,32.23 49.09,30.52 50.35,28.64"/>
	<path class="st3" d="M53.88,39.19C50.17,40.09 46.39,41.6 43.5,45.57C41.37,48.5 39.43,55.34 40.91,61.27C41.97,59.72 41.84,58.73 41.89,57.16C41.95,55.37 42.93,54.46 44.34,54.21C46.21,53.89 47.28,53.65 49.22,52.78C53.14,51.03 55.4,48.39 56.99,45.81C59.13,42.32 61.11,38.82 66.39,38.55C62.27,38.16 57.14,38.4 53.88,39.19"/>
	<path class="st1" d="M40.91,65.04C40.7,65.04 40.48,65.02 40.26,64.98C38.79,64.73 37.62,63.63 37.26,62.19C35.51,55.2 37.6,47.27 40.45,43.36C44.2,38.2 49.12,36.46 52.99,35.52C56.52,34.67 62.22,34.37 66.74,34.79C68.71,34.98 70.2,36.66 70.16,38.63C70.11,40.61 68.55,42.21 66.58,42.31C63.59,42.47 62.47,44.08 60.41,47.44L60.2,47.78C57.76,51.76 54.75,54.44 50.76,56.22C48.76,57.11 47.47,57.48 45.65,57.81L45.65,57.82C45.62,59.28 45.58,61.11 44.04,63.39C43.33,64.43 42.15,65.04 40.91,65.04M54.31,42.97C51.54,43.68 48.72,44.82 46.55,47.79C46.13,48.36 45.72,49.19 45.35,50.17C46.07,50 46.73,49.76 47.68,49.34C50.26,48.18 52.14,46.49 53.78,43.83L53.98,43.49C54.09,43.32 54.2,43.15 54.31,42.97"/>
	<path class="st4" d="M17.27,13.86C15.4,14.43 13.17,15 11.19,14.15C11.86,16.5 10.24,18.61 9.44,20.82C8.53,23.33 7.88,28.02 9.95,30.11C11.98,32.17 13.86,31.47 16.86,32.93C16.14,29.17 19.73,25.76 19.54,22.18C19.59,23.24 20.75,23.74 21.6,23.93C21.58,22.55 21.77,22.14 22,21.27C22.24,20.36 22.76,19.46 22.38,18.49C23.48,18.91 25.5,17.86 27.46,18.07C26.64,15.87 25.86,15.07 24.64,14.29C22.72,13.08 20.05,13 17.27,13.86"/>
	<path class="st4" d="M45.68,12.85C42.74,12.58 39.93,13.01 37.91,16.25C36.05,19.25 35.93,23.12 35.14,26.27C34.87,27.34 34.61,28.36 34.03,29.28C33.14,25.8 32.8,22.2 34.27,18.84C36.05,14.73 40.42,10.96 39.55,6.13C39.41,5.32 38.44,4.46 38.39,3.77C38.83,10.42 28.11,8.01 27.98,15.29C27.92,18.83 29.98,20.27 31.46,23.04C30.81,22.28 30.05,21.95 29.41,21.88C27.63,21.68 24.98,23.01 23.19,22.71C23.07,24.63 21.89,26.74 21.45,28.65C20.96,30.86 20.66,33.23 21.2,35.46C20.32,35.5 19.69,35.19 18.75,34.87C16.57,33.87 14.23,33.11 11.99,33.24C10.24,33.34 7.88,34.07 6.37,35.57C5.22,36.71 4.63,38.49 4.3,40.06C4.13,40.92 4.96,43.64 3.77,44.03C5.8,43.37 7.15,44.76 9.08,45C10.89,45.22 12.89,45.02 14.6,44.4C16.35,43.76 18.26,42.49 19.54,41.15C21.89,38.71 23.78,37.5 27.17,38.35C32.11,39.59 34.82,44.41 35.53,50.24C36.35,47.41 37.04,45.89 36.9,42.22C36.77,38.84 35.66,35.59 36.51,32.53C38.09,26.85 39.29,28.31 43.96,26.1C47.91,24.23 49.63,21.09 50.05,18.46C50.35,16.66 50.26,14.83 51.53,13.39C49.82,14.19 48.1,13.06 45.68,12.85"/>
	<path class="st5" d="M57.2,14.26C57.28,18.17 52.74,22.82 49.71,24.64C45.48,27.16 43.09,28.43 41.15,31.28C39.9,33.13 39.49,34.97 39.77,36.96C40.02,38.73 40.8,40.06 41.04,41.82C41.29,43.55 40.68,44.8 39.63,45.63C40.05,42.2 39.81,39.59 39.2,37.98C38.8,36.9 38.07,36.09 37.11,35.67C38.47,39.12 38.04,42.89 37.43,45.65C36.94,47.91 36.11,50.57 36.01,53.19C34.7,52.88 33.65,52.16 32.97,50.78C32.19,49.21 31.38,47.24 29.87,45.97C26.19,42.86 20.13,44.72 16.16,46.09C13.33,47.06 7.38,49.15 4.73,46.78C7.2,49.56 14.88,55.53 21.82,54.96C28.69,54.4 35.25,51.53 37.41,60.61C37.71,61.86 39.19,62.67 39.98,63.04C39.42,60.19 38.95,57.75 39.42,53.21C39.82,49.41 41.41,45.29 44.31,41.41C47.5,37.16 51.83,33.9 54.43,29.19C56.8,24.87 58.13,19.17 57.2,14.26"/>
	<path class="st5" d="M53.88,39.19C50.17,40.09 46.39,41.6 43.5,45.57C41.37,48.5 39.43,55.34 40.91,61.27C41.97,59.72 41.84,58.73 41.89,57.16C41.95,55.37 42.93,54.46 44.34,54.21C46.21,53.89 47.28,53.65 49.22,52.78C53.14,51.03 55.4,48.39 56.99,45.81C59.13,42.32 61.11,38.82 66.39,38.55C62.27,38.16 57.14,38.4 53.88,39.19"/>
</svg>